<svg width="70" height="70" viewBox="0 0 70 70" fill="none" xmlns="http://www.w3.org/2000/svg">
<path d="M32.0198 1.17578C33.7014 -0.382813 36.2991 -0.382813 37.967 1.17578L50.3127 12.6191V10.9375C50.3127 8.51758 52.2678 6.5625 54.6877 6.5625H59.0627C61.4827 6.5625 63.4377 8.51758 63.4377 10.9375V24.8145L68.6057 29.6133C69.9182 30.8438 70.3557 32.7441 69.6994 34.4121C69.0432 36.0801 67.4299 37.1875 65.6252 37.1875H63.4377V61.25C63.4377 66.0762 59.5139 70 54.6877 70H15.3127C10.4866 70 6.56273 66.0762 6.56273 61.25V37.1875H4.37523C2.57054 37.1875 0.957263 36.0801 0.301013 34.4121C-0.355237 32.7441 0.0822634 30.8301 1.39476 29.6133L32.0198 1.17578ZM32.8127 43.75C29.1897 43.75 26.2502 46.6895 26.2502 50.3125V63.4375H43.7502V50.3125C43.7502 46.6895 40.8108 43.75 37.1877 43.75H32.8127Z" fill="#FEF801"/>
</svg>
