<svg width="262" height="353" viewBox="0 0 262 353" fill="none" xmlns="http://www.w3.org/2000/svg">
<path d="M228.206 114.516C237.169 88.5069 243.51 62.6966 245.836 42.7631C248.161 22.8295 246.28 10.4056 240.606 8.22433C234.933 6.0431 225.931 14.2833 215.581 31.1321C205.231 47.9809 194.382 72.0582 185.419 98.0673L206.813 106.292L228.206 114.516Z" fill="#FEB201"/>
<path d="M78.5715 137.99C69.0809 110.449 57.725 84.9021 47.0021 66.97C36.2791 49.0379 27.0675 40.1892 21.3935 42.3704C15.7196 44.5516 14.0482 57.5842 16.747 78.601C19.4459 99.6178 26.2938 126.897 35.7844 154.438L57.178 146.214L78.5715 137.99Z" fill="#FEB201"/>
<path d="M238.593 176.5C238.593 129.689 227.68 84.7958 208.253 51.6957C188.827 18.5955 162.479 3.53411e-06 135.006 0C107.532 -3.53411e-06 81.1845 18.5955 61.758 51.6956C42.3315 84.7958 31.4179 129.689 31.4178 176.5L135.006 176.5H238.593Z" fill="#FEF801"/>
<path d="M219.014 176.5C219.014 134.026 210.139 93.2919 194.342 63.2582C178.545 33.2246 157.119 16.3518 134.778 16.3518C112.437 16.3518 91.0113 33.2245 75.214 63.2582C59.4166 93.2919 50.5418 134.026 50.5417 176.5L134.778 176.5H219.014Z" fill="#FFFEE5"/>
<path d="M112.173 90.9772C127.552 88.4044 142.513 87.3465 153.765 88.0362C165.016 88.726 171.636 91.1068 172.168 94.6551C172.7 98.2033 167.1 102.628 156.602 106.957C146.103 111.285 131.565 115.162 116.185 117.735L114.179 104.356L112.173 90.9772Z" fill="#FE8401"/>
<path d="M128.22 91.8169C136.877 95.8879 144.63 101.096 149.773 106.295C154.916 111.494 157.028 116.259 155.645 119.541C154.262 122.823 149.496 124.353 142.396 123.795C135.297 123.237 126.445 120.637 117.788 116.566L123.004 104.191L128.22 91.8169Z" fill="#FE8401"/>
<path d="M124.305 85.1242C124.305 81.9664 123.716 78.8395 122.572 75.9221C121.428 73.0046 119.751 70.3538 117.637 68.1209C115.523 65.888 113.013 64.1167 110.251 62.9083C107.489 61.6999 104.528 61.0779 101.539 61.0779C98.549 61.0779 95.5885 61.6999 92.8264 62.9083C90.0642 64.1167 87.5544 65.888 85.4404 68.1209C83.3263 70.3538 81.6493 73.0046 80.5052 75.9221C79.3611 78.8395 78.7722 81.9664 78.7722 85.1242H88.9728C88.9728 83.3813 89.2978 81.6554 89.9293 80.0451C90.5608 78.4348 91.4864 76.9717 92.6533 75.7392C93.8201 74.5068 95.2054 73.5292 96.73 72.8622C98.2545 72.1952 99.8886 71.8519 101.539 71.8519C103.189 71.8519 104.823 72.1952 106.348 72.8622C107.872 73.5292 109.257 74.5068 110.424 75.7392C111.591 76.9717 112.517 78.4348 113.148 80.0451C113.78 81.6554 114.105 83.3813 114.105 85.1242H124.305Z" fill="#1B1B1B"/>
<path d="M192.605 83.6811C192.605 80.5233 192.016 77.3964 190.872 74.479C189.728 71.5615 188.051 68.9107 185.937 66.6778C183.823 64.4449 181.313 62.6736 178.551 61.4652C175.789 60.2567 172.828 59.6348 169.838 59.6348C166.849 59.6348 163.888 60.2567 161.126 61.4652C158.364 62.6736 155.854 64.4449 153.74 66.6778C151.626 68.9107 149.949 71.5615 148.805 74.479C147.661 77.3964 147.072 80.5233 147.072 83.6811H157.272C157.272 81.9381 157.597 80.2123 158.229 78.602C158.86 76.9917 159.786 75.5286 160.953 74.2961C162.12 73.0637 163.505 72.086 165.03 71.419C166.554 70.752 168.188 70.4087 169.838 70.4087C171.488 70.4087 173.123 70.752 174.647 71.419C176.172 72.086 177.557 73.0637 178.724 74.2961C179.891 75.5286 180.816 76.9917 181.448 78.602C182.079 80.2123 182.404 81.9381 182.404 83.6811H192.605Z" fill="#1B1B1B"/>
</svg>
