<svg width="688" height="764" viewBox="0 0 688 764" fill="none" xmlns="http://www.w3.org/2000/svg">
<path d="M599.259 269.258C622.794 208.104 639.447 147.417 645.554 100.548C651.661 53.6784 646.721 24.4663 631.822 19.3377C616.922 14.209 593.283 33.5839 566.106 73.2001C538.928 112.816 510.437 169.429 486.902 230.583L543.08 249.921L599.259 269.258Z" fill="#FEB201"/>
<path d="M206.325 324.452C181.403 259.695 151.583 199.628 123.425 157.465C95.2673 115.301 71.0779 94.4956 56.1785 99.6243C41.279 104.753 36.89 135.396 43.977 184.812C51.0639 234.229 69.0463 298.37 93.9683 363.127L150.147 343.789L206.325 324.452Z" fill="#FEB201"/>
<path d="M626.535 415C626.535 304.935 597.876 199.378 546.863 121.551C495.85 43.7231 426.662 8.30967e-06 354.519 0C282.375 -8.30966e-06 213.187 43.7231 162.174 121.551C111.161 199.378 82.502 304.935 82.502 415L354.519 415H626.535Z" fill="#FEF801"/>
<path d="M575.121 415C575.121 315.132 551.816 219.355 510.333 148.737C468.85 78.1197 412.587 38.4473 353.921 38.4473C295.255 38.4473 238.992 78.1197 197.509 148.737C156.026 219.354 132.721 315.132 132.721 415L353.921 415H575.121Z" fill="#FFFEE5"/>
<path d="M294.561 213.913C334.947 207.863 374.233 205.376 403.779 206.998C433.324 208.619 450.707 214.218 452.104 222.56C453.501 230.903 438.798 241.308 411.229 251.484C383.66 261.661 345.483 270.777 305.097 276.827L299.829 245.37L294.561 213.913Z" fill="#FE8401"/>
<path d="M336.7 215.886C359.433 225.458 379.791 237.704 393.297 249.929C406.802 262.153 412.349 273.356 408.716 281.073C405.083 288.79 392.569 292.388 373.925 291.076C355.282 289.764 332.038 283.649 309.305 274.077L323.002 244.982L336.7 215.886Z" fill="#FE8401"/>
<path d="M326.42 200.15C326.42 192.725 324.874 185.373 321.87 178.513C318.865 171.653 314.461 165.421 308.91 160.17C303.359 154.92 296.768 150.756 289.515 147.914C282.261 145.073 274.487 143.61 266.636 143.61C258.785 143.61 251.011 145.073 243.758 147.914C236.505 150.756 229.914 154.92 224.363 160.17C218.811 165.421 214.408 171.653 211.403 178.513C208.399 185.373 206.853 192.725 206.853 200.15H233.639C233.639 196.052 234.492 191.994 236.151 188.207C237.809 184.421 240.239 180.981 243.304 178.083C246.368 175.185 250.005 172.887 254.009 171.318C258.012 169.75 262.303 168.943 266.636 168.943C270.97 168.943 275.261 169.75 279.264 171.318C283.268 172.887 286.905 175.185 289.969 178.083C293.033 180.981 295.464 184.421 297.122 188.207C298.781 191.994 299.634 196.052 299.634 200.15H326.42Z" fill="#1B1B1B"/>
<path d="M505.772 196.757C505.772 189.332 504.225 181.98 501.221 175.121C498.217 168.261 493.813 162.028 488.262 156.778C482.71 151.528 476.12 147.363 468.866 144.522C461.613 141.68 453.839 140.218 445.988 140.218C438.137 140.218 430.363 141.68 423.11 144.522C415.856 147.363 409.266 151.528 403.714 156.778C398.163 162.028 393.759 168.261 390.755 175.121C387.75 181.98 386.204 189.332 386.204 196.757H412.99C412.99 192.659 413.844 188.601 415.502 184.815C417.16 181.029 419.591 177.588 422.655 174.691C425.719 171.793 429.357 169.494 433.36 167.926C437.364 166.358 441.655 165.55 445.988 165.55C450.321 165.55 454.612 166.358 458.616 167.926C462.619 169.494 466.257 171.793 469.321 174.691C472.385 177.588 474.816 181.029 476.474 184.815C478.132 188.601 478.986 192.659 478.986 196.757H505.772Z" fill="#1B1B1B"/>
</svg>
