<svg xmlns="http://www.w3.org/2000/svg" fill="none" viewBox="0 0 396.5857142857143 374.79" style="max-height: 500px" width="396.5857142857143" height="374.79">
<path fill="#FEF801" d="M391 306C391 224.844 370.403 147.011 333.739 89.6253C297.076 32.2392 247.35 6.12713e-06 195.5 0C143.65 -6.12712e-06 93.924 32.2392 57.2606 89.6253C20.5973 147.011 7.82911e-06 224.844 0 306L195.5 306H391Z"/>
<path fill="#FFFEE5" d="M354.048 306C354.048 232.362 337.299 161.741 307.485 109.671C277.67 57.6012 237.234 28.3488 195.07 28.3488C152.907 28.3488 112.47 57.6012 82.6558 109.671C52.8416 161.741 36.0922 232.362 36.0922 306L195.07 306H354.048Z"/>
<path fill="#FEB201" d="M312.8 206.779C312.8 250.343 316.195 292.122 322.239 322.926C328.282 353.73 336.479 371.035 345.025 371.035C353.572 371.035 361.769 353.73 367.812 322.926C373.855 292.122 377.25 250.343 377.25 206.779L345.025 206.779H312.8Z"/>
<path fill="#FEB201" d="M17.187 210.531C17.187 253.1 20.4916 293.925 26.3738 324.025C32.2561 354.125 40.2341 371.035 48.5529 371.035C56.8716 371.035 64.8497 354.125 70.732 324.025C76.6142 293.925 79.9188 253.1 79.9188 210.531L48.5529 210.531H17.187Z"/>
<path fill="#FE8401" d="M187.133 141.896C212.836 155.72 236.25 171.141 252.224 184.768C268.198 198.394 275.424 209.11 272.312 214.558C269.2 220.005 256.005 219.738 235.629 213.815C215.254 207.892 189.368 196.799 163.665 182.975L175.399 162.435L187.133 141.896Z"/>
<path fill="#FE8401" d="M210.075 161.134C218.472 176.456 224.272 192.311 226.201 205.212C228.131 218.114 226.03 227.004 220.363 229.928C214.695 232.853 205.924 229.57 195.979 220.804C186.034 212.038 175.731 198.506 167.334 183.184L188.705 172.159L210.075 161.134Z"/>
<rect fill="#72A8E6" height="55.8638" width="31.7956" y="165.924" x="114.292"/>
<rect fill="#72A8E6" height="16.6757" width="15.4681" y="233.46" x="109.136"/>
<path fill="#1B1B1B" d="M172.728 131.738C172.728 137.213 171.616 142.634 169.457 147.692C167.298 152.75 164.133 157.346 160.143 161.217C156.153 165.088 151.416 168.159 146.203 170.254C140.99 172.349 135.403 173.428 129.76 173.428C124.118 173.428 118.531 172.349 113.318 170.254C108.105 168.159 103.368 165.088 99.3782 161.217C95.3883 157.346 92.2234 152.75 90.0641 147.692C87.9048 142.634 86.7935 137.213 86.7935 131.738H106.045C106.045 134.76 106.658 137.752 107.85 140.544C109.042 143.336 110.789 145.873 112.991 148.009C115.193 150.146 117.808 151.841 120.685 152.997C123.562 154.154 126.646 154.749 129.76 154.749C132.875 154.749 135.959 154.154 138.836 152.997C141.713 151.841 144.328 150.146 146.53 148.009C148.732 145.873 150.479 143.336 151.671 140.544C152.863 137.752 153.476 134.76 153.476 131.738H172.728Z"/>
<path fill="#1B1B1B" d="M312.8 131.738C312.8 137.213 311.689 142.634 309.529 147.692C307.37 152.75 304.205 157.346 300.215 161.217C296.225 165.088 291.489 168.159 286.276 170.254C281.063 172.349 275.476 173.428 269.833 173.428C264.19 173.428 258.603 172.349 253.39 170.254C248.177 168.159 243.441 165.088 239.451 161.217C235.461 157.346 232.296 152.75 230.137 147.692C227.977 142.634 226.866 137.213 226.866 131.738H246.117C246.117 134.76 246.731 137.752 247.923 140.544C249.114 143.336 250.861 145.873 253.064 148.009C255.266 150.146 257.88 151.841 260.757 152.997C263.635 154.154 266.719 154.749 269.833 154.749C272.947 154.749 276.031 154.154 278.909 152.997C281.786 151.841 284.4 150.146 286.602 148.009C288.805 145.873 290.552 143.336 291.743 140.544C292.935 137.752 293.549 134.76 293.549 131.738H312.8Z"/>
</svg>